<?xml version="1.0" encoding="UTF-8"?>
<svg width="35px" height="35px" viewBox="0 0 35 35" version="1.1" xmlns="http://www.w3.org/2000/svg" xmlns:xlink="http://www.w3.org/1999/xlink">
    <!-- Generator: Sketch 63 (92445) - https://sketch.com -->
    <title>Group 32</title>
    <desc>Created with Sketch.</desc>
    <defs>
        <linearGradient x1="50%" y1="0%" x2="50%" y2="100%" id="linearGradient-1">
            <stop stop-color="#62E000" offset="0%"></stop>
            <stop stop-color="#92DD5F" offset="100%"></stop>
        </linearGradient>
    </defs>
    <g id="Page-1" stroke="none" stroke-width="1" fill="none" fill-rule="evenodd">
        <g id="Group-32">
            <circle id="Oval" fill="url(#linearGradient-1)" cx="17.5" cy="17.5" r="17.5"></circle>
            <g id="Group-27" transform="translate(9.000000, 5.000000)" fill="#FFFFFF">
                <path d="M16.953,15.2192 L15.299,15.2192 L15.299,20.6492 C15.299,20.9782 15.029,21.2452 14.701,21.2452 L10.882,21.2452 L10.791,21.2452 L10.791,17.1782 C10.791,16.6312 10.344,16.1852 9.797,16.1852 L8.473,16.1852 C7.926,16.1852 7.477,16.6312 7.477,17.1782 L7.477,21.1982 C7.433,21.2452 7.344,21.2452 7.296,21.2452 L3.295,21.2452 C2.967,21.2452 2.697,20.9782 2.697,20.6492 L2.697,15.2192 L1.364,15.2192 C0.809,15.2192 0.581,14.5312 0.949,14.2092 L7.219,8.1192 C7.455,7.8922 7.848,7.9692 7.976,8.2732 L8.79,9.7582 C8.965,10.0772 9.419,10.0902 9.611,9.7822 L10.641,8.1352 C10.762,7.8982 11.081,7.8452 11.267,8.0352 L17.368,14.2092 C17.736,14.5772 17.459,15.2192 16.953,15.2192" id="Fill-23"></path>
                <path d="M8.3671,7.4975 C8.2021,7.3605 8.1351,7.1395 8.1961,6.9335 C8.4281,6.1595 8.7751,5.2485 9.3051,4.2825 C10.1141,2.8115 11.0591,1.7355 11.8211,1.0065 C11.9151,0.9155 12.0621,0.9245 12.1511,1.0185 L14.1641,3.2075 C14.2571,3.3095 14.2401,3.4665 14.1311,3.5485 C13.8241,3.7755 13.5121,4.0365 13.2011,4.3325 C11.6381,5.8265 10.2791,6.7815 9.6921,8.1525 C9.6201,8.3225 9.4001,8.3705 9.2561,8.2575 C8.5991,7.7405 8.6791,7.7575 8.3671,7.4975" id="Fill-25"></path>
            </g>
        </g>
    </g>
</svg>