<?xml version="1.0" encoding="UTF-8"?>
<svg width="194px" height="35px" viewBox="0 0 194 35" version="1.1" xmlns="http://www.w3.org/2000/svg" xmlns:xlink="http://www.w3.org/1999/xlink">
    <!-- Generator: Sketch 63 (92445) - https://sketch.com -->
    <title>Group 30</title>
    <desc>Created with Sketch.</desc>
    <defs>
        <linearGradient x1="50%" y1="0%" x2="50%" y2="100%" id="linearGradient-1">
            <stop stop-color="#62E000" offset="0%"></stop>
            <stop stop-color="#92DD5F" offset="100%"></stop>
        </linearGradient>
        <path d="M0,16.105 C0,24.883 7.116,32 15.894,32 L15.894,32 C24.673,32 31.789,24.883 31.789,16.105 L31.789,16.105 C31.789,7.325 24.673,0.209 15.894,0.209 L15.894,0.209 C7.116,0.209 0,7.325 0,16.105" id="path-2"></path>
    </defs>
    <g id="Page-1" stroke="none" stroke-width="1" fill="none" fill-rule="evenodd">
        <g id="Group-30" transform="translate(0.000000, -2.000000)">
            <circle id="Oval" fill="url(#linearGradient-1)" cx="17.5" cy="19.5" r="17.5"></circle>
            <g id="Group-28">
                <g id="Group-19" transform="translate(42.000000, 11.000000)" fill="#192346">
                    <path d="M7.703,19.9897 C5.846,19.9897 4.249,19.4937 2.911,18.5017 C1.879,17.7367 1.072,16.7467 0.489,15.5327 C0.202,14.9347 0.503,14.2147 1.124,13.9807 L2.831,13.3427 C3.334,13.1527 3.894,13.3477 4.184,13.8027 C4.545,14.3647 4.972,14.8407 5.464,15.2247 C6.174,15.7797 6.957,16.0567 7.812,16.0567 C8.704,16.0567 9.405,15.8887 9.915,15.5527 C10.425,15.2167 10.68,14.7287 10.68,14.0927 C10.68,13.6737 10.493,13.3007 10.12,12.9707 C9.747,12.6437 9.355,12.4027 8.945,12.2477 C8.536,12.0937 7.903,11.8807 7.048,11.6057 C6.483,11.4257 6.06,11.2827 5.778,11.1827 C5.495,11.0837 5.091,10.9247 4.562,10.7047 C4.034,10.4867 3.635,10.2867 3.361,10.1037 C3.088,9.9237 2.761,9.6767 2.378,9.3667 C1.996,9.0567 1.709,8.7347 1.517,8.3977 C1.327,8.0607 1.158,7.6507 1.013,7.1687 C0.867,6.6857 0.794,6.1737 0.794,5.6267 C0.794,4.0957 1.395,2.8127 2.597,1.7747 C3.798,0.7377 5.428,0.2187 7.484,0.2187 C9.196,0.2187 10.634,0.6657 11.799,1.5567 C12.521,2.1097 13.093,2.7607 13.515,3.5107 C13.93,4.2477 13.542,5.1847 12.736,5.4457 L11.363,5.8897 C10.83,6.0617 10.276,5.8377 9.94,5.3897 C9.318,4.5637 8.427,4.1507 7.266,4.1507 C5.719,4.1507 4.945,4.6707 4.945,5.7077 C4.945,5.9447 5.017,6.1537 5.163,6.3357 C5.307,6.5177 5.573,6.7007 5.956,6.8837 C6.338,7.0637 6.652,7.2007 6.897,7.2917 C7.143,7.3847 7.575,7.5377 8.195,7.7577 C8.849,7.9737 9.355,8.1467 9.71,8.2747 C10.065,8.4027 10.552,8.5977 11.171,8.8617 C11.79,9.1267 12.277,9.4077 12.632,9.7087 C12.987,10.0097 13.355,10.3687 13.738,10.7867 C14.12,11.2057 14.397,11.6977 14.571,12.2607 C14.744,12.8257 14.831,13.4457 14.831,14.1187 C14.831,15.9207 14.157,17.3497 12.809,18.4057 C11.462,19.4617 9.76,19.9897 7.703,19.9897" id="Fill-1"></path>
                    <path d="M26.2997,12.1254 L24.6607,8.0014 C24.4047,7.3834 24.2147,6.8464 24.0877,6.3904 C24.0147,6.7004 23.8227,7.2364 23.5147,8.0014 L21.8757,12.1254 L26.2997,12.1254 Z M28.7617,18.7444 L27.6927,15.9474 L20.5107,15.9474 L19.4407,18.7444 C19.2297,19.2974 18.6987,19.6614 18.1087,19.6614 L16.6537,19.6614 C15.6477,19.6614 14.9567,18.6474 15.3257,17.7124 L21.7377,1.4494 C21.9527,0.9044 22.4797,0.5464 23.0657,0.5464 L25.1117,0.5464 C25.6957,0.5464 26.2227,0.9034 26.4377,1.4484 L32.8727,17.7104 C33.2427,18.6464 32.5537,19.6614 31.5467,19.6614 L30.0937,19.6614 C29.5027,19.6614 28.9727,19.2974 28.7617,18.7444 L28.7617,18.7444 Z" id="Fill-3"></path>
                    <path d="M34.7098,18.4174 L34.7098,1.7914 C34.7098,1.1054 35.2678,0.5464 35.9548,0.5464 L46.7918,0.5464 C47.4808,0.5464 48.0358,1.1054 48.0358,1.7914 L48.0358,3.2344 C48.0358,3.9224 47.4808,4.4794 46.7918,4.4794 L38.8608,4.4794 L38.8608,7.8374 L43.3778,7.8374 C44.0648,7.8374 44.6228,8.3964 44.6228,9.0824 L44.6228,10.5254 C44.6228,11.2134 44.0648,11.7714 43.3778,11.7714 L38.8608,11.7714 L38.8608,18.4174 C38.8608,19.1044 38.3038,19.6614 37.6158,19.6614 L35.9548,19.6614 C35.2678,19.6614 34.7098,19.1044 34.7098,18.4174" id="Fill-5"></path>
                    <path d="M49.2098,18.3686 L49.2098,1.8406 C49.2098,1.1256 49.7888,0.5466 50.5038,0.5466 L61.6518,0.5466 C62.3668,0.5466 62.9458,1.1256 62.9458,1.8406 L62.9458,3.1856 C62.9458,3.8996 62.3668,4.4786 61.6518,4.4786 L53.3608,4.4786 L53.3608,7.8376 L61.8928,7.8376 C62.6058,7.8376 63.1858,8.4166 63.1858,9.1316 L63.1858,10.4756 C63.1858,11.1906 62.6058,11.7696 61.8928,11.7696 L53.3608,11.7696 L53.3608,15.7026 L62.1988,15.7026 C62.9128,15.7026 63.4918,16.2816 63.4918,16.9956 L63.4918,18.3686 C63.4918,19.0826 62.9128,19.6616 62.1988,19.6616 L50.5038,19.6616 C49.7888,19.6616 49.2098,19.0826 49.2098,18.3686" id="Fill-7"></path>
                    <path d="M82.9891,18.7602 L82.9891,10.8522 C82.9891,10.7252 82.8871,10.6232 82.7601,10.6232 L73.8791,10.6232 C73.7531,10.6232 73.6501,10.7252 73.6501,10.8522 L73.6501,18.7602 C73.6501,19.2582 73.2471,19.6612 72.7491,19.6612 L72.6391,19.6612 C72.1421,19.6612 71.7391,19.2582 71.7391,18.7602 L71.7391,1.4482 C71.7391,0.9502 72.1421,0.5462 72.6391,0.5462 L72.7491,0.5462 C73.2471,0.5462 73.6501,0.9502 73.6501,1.4482 L73.6501,8.5922 C73.6501,8.7182 73.7531,8.8222 73.8791,8.8222 L82.7601,8.8222 C82.8871,8.8222 82.9891,8.7182 82.9891,8.5922 L82.9891,1.4482 C82.9891,0.9502 83.3931,0.5462 83.8901,0.5462 L84.0001,0.5462 C84.4981,0.5462 84.9011,0.9502 84.9011,1.4482 L84.9011,18.7602 C84.9011,19.2582 84.4981,19.6612 84.0001,19.6612 L83.8901,19.6612 C83.3931,19.6612 82.9891,19.2582 82.9891,18.7602" id="Fill-9"></path>
                    <path d="M96.2323,18.269 C97.2883,18.269 98.2113,18.028 99.0033,17.545 C99.7963,17.063 100.4163,16.416 100.8623,15.607 C101.3073,14.797 101.6353,13.927 101.8443,12.999 C102.0533,12.071 102.1593,11.106 102.1593,10.104 C102.1593,8.629 101.9813,7.305 101.6263,6.131 C101.2713,4.956 100.6333,3.964 99.7143,3.155 C98.7953,2.345 97.6343,1.94 96.2323,1.94 C95.1763,1.94 94.2533,2.181 93.4613,2.665 C92.6693,3.145 92.0493,3.792 91.6043,4.602 C91.1583,5.413 90.8303,6.281 90.6213,7.209 C90.4123,8.138 90.3073,9.103 90.3073,10.104 C90.3073,11.58 90.4853,12.904 90.8393,14.079 C91.1943,15.251 91.8323,16.245 92.7513,17.054 C93.6693,17.865 94.8313,18.269 96.2323,18.269 M99.9473,19.129 C98.8903,19.704 97.6533,19.99 96.2323,19.99 C94.8133,19.99 93.5753,19.704 92.5193,19.129 C91.4613,18.556 90.6393,17.782 90.0473,16.808 C89.4563,15.834 89.0193,14.789 88.7373,13.668 C88.4553,12.548 88.3143,11.361 88.3143,10.104 C88.3143,8.848 88.4553,7.662 88.7373,6.54 C89.0193,5.421 89.4563,4.374 90.0473,3.401 C90.6393,2.426 91.4613,1.653 92.5193,1.081 C93.5753,0.505 94.8133,0.219 96.2323,0.219 C97.6533,0.219 98.8903,0.505 99.9473,1.081 C101.0033,1.653 101.8263,2.426 102.4183,3.401 C103.0093,4.374 103.4463,5.421 103.7293,6.54 C104.0103,7.662 104.1523,8.848 104.1523,10.104 C104.1523,11.361 104.0103,12.548 103.7293,13.668 C103.4463,14.789 103.0093,15.834 102.4183,16.808 C101.8263,17.782 101.0033,18.556 99.9473,19.129" id="Fill-11"></path>
                    <path d="M113.9823,19.9897 C109.6133,19.9897 107.4283,17.5137 107.4283,12.5617 L107.4283,1.4477 C107.4283,0.9507 107.8333,0.5477 108.3303,0.5477 L108.4393,0.5477 C108.9363,0.5477 109.3393,0.9507 109.3393,1.4477 L109.3393,12.5617 C109.3393,16.3677 110.8873,18.2687 113.9823,18.2687 C117.0773,18.2687 118.6253,16.3677 118.6253,12.5617 L118.6253,1.4477 C118.6253,0.9507 119.0283,0.5477 119.5263,0.5477 L119.6353,0.5477 C120.1323,0.5477 120.5363,0.9507 120.5363,1.4477 L120.5363,12.5617 C120.5363,17.5137 118.3513,19.9897 113.9823,19.9897" id="Fill-13"></path>
                    <path d="M130.0389,19.9897 C128.4909,19.9897 127.1439,19.6167 125.9979,18.8707 C125.2029,18.3527 124.5879,17.7537 124.1509,17.0697 C123.8489,16.5957 124.0979,15.9597 124.6259,15.7667 L124.7649,15.7177 C125.1489,15.5767 125.5869,15.7107 125.8089,16.0537 C126.1849,16.6357 126.6769,17.1197 127.2809,17.5057 C128.0819,18.0137 129.0109,18.2687 130.0659,18.2687 C131.3219,18.2687 132.3099,17.9657 133.0289,17.3547 C133.7489,16.7447 134.1079,15.8757 134.1079,14.7467 C134.1079,13.6737 133.7169,12.7847 132.9349,12.0847 C132.1509,11.3847 131.1039,10.7867 129.7939,10.2957 C129.0109,10.0057 128.3329,9.7147 127.7589,9.4227 C127.1849,9.1317 126.6019,8.7617 126.0119,8.3157 C125.4199,7.8697 124.9689,7.3377 124.6599,6.7187 C124.3499,6.0987 124.1949,5.4167 124.1949,4.6707 C124.1949,3.4137 124.7049,2.3577 125.7249,1.5027 C126.7439,0.6467 128.1089,0.2187 129.8209,0.2187 C131.2039,0.2187 132.3689,0.5017 133.3159,1.0657 C133.8559,1.3877 134.2869,1.7627 134.6079,2.1927 C134.9739,2.6807 134.7399,3.3867 134.1629,3.5827 L134.0389,3.6247 C133.6699,3.7497 133.2759,3.6127 133.0319,3.3077 C132.7819,2.9957 132.4529,2.7207 132.0459,2.4857 C131.4179,2.1217 130.6489,1.9397 129.7389,1.9397 C128.6279,1.9397 127.7549,2.1847 127.1169,2.6777 C126.4799,3.1687 126.1619,3.8237 126.1619,4.6427 C126.1619,5.1357 126.2749,5.5717 126.5029,5.9537 C126.7299,6.3357 127.0759,6.6817 127.5409,6.9917 C128.0049,7.3017 128.4509,7.5547 128.8789,7.7577 C129.3069,7.9567 129.8659,8.1927 130.5589,8.4667 C131.3049,8.7587 131.9649,9.0617 132.5379,9.3817 C133.1109,9.6997 133.6849,10.1037 134.2589,10.5947 C134.8319,11.0877 135.2769,11.6787 135.5969,12.3707 C135.9139,13.0627 136.0749,13.8367 136.0749,14.6917 C136.0749,16.3487 135.5189,17.6457 134.4079,18.5837 C133.2979,19.5207 131.8419,19.9897 130.0389,19.9897" id="Fill-15"></path>
                    <path d="M139.6239,19.4331 L139.6239,0.7751 C139.6239,0.6491 139.7269,0.5461 139.8529,0.5461 L149.6179,0.5461 C150.1159,0.5461 150.5199,0.9521 150.5199,1.4481 L150.5199,1.4751 C150.5199,1.9731 150.1159,2.3761 149.6179,2.3761 L141.7639,2.3761 C141.6379,2.3761 141.5349,2.4791 141.5349,2.6051 L141.5349,8.6471 C141.5349,8.7731 141.6379,8.8751 141.7639,8.8751 L146.6959,8.8751 C147.1929,8.8751 147.5979,9.2791 147.5979,9.7771 C147.5979,10.2741 147.1929,10.6781 146.6959,10.6781 L141.7639,10.6781 C141.6379,10.6781 141.5349,10.7801 141.5349,10.9071 L141.5349,17.6041 C141.5349,17.7301 141.6379,17.8321 141.7639,17.8321 L150.2189,17.8321 C150.7169,17.8321 151.1199,18.2361 151.1199,18.7341 L151.1199,18.7601 C151.1199,19.2581 150.7169,19.6621 150.2189,19.6621 L139.8529,19.6621 C139.7269,19.6621 139.6239,19.5601 139.6239,19.4331" id="Fill-17"></path>
                </g>
                <g id="Group-22" transform="translate(0.000000, 0.791000)">
                    <mask id="mask-3" fill="white">
                        <use xlink:href="#path-2"></use>
                    </mask>
                    <g id="Clip-21"></g>
                    <path d="M0,16.105 C0,24.883 7.116,32 15.894,32 L15.894,32 C24.673,32 31.789,24.883 31.789,16.105 L31.789,16.105 C31.789,7.325 24.673,0.209 15.894,0.209 L15.894,0.209 C7.116,0.209 0,7.325 0,16.105" id="Fill-20" mask="url(#mask-3)"></path>
                </g>
                <g id="Group-27" transform="translate(9.000000, 7.000000)" fill="#FFFFFF">
                    <path d="M16.953,15.2192 L15.299,15.2192 L15.299,20.6492 C15.299,20.9782 15.029,21.2452 14.701,21.2452 L10.882,21.2452 L10.791,21.2452 L10.791,17.1782 C10.791,16.6312 10.344,16.1852 9.797,16.1852 L8.473,16.1852 C7.926,16.1852 7.477,16.6312 7.477,17.1782 L7.477,21.1982 C7.433,21.2452 7.344,21.2452 7.296,21.2452 L3.295,21.2452 C2.967,21.2452 2.697,20.9782 2.697,20.6492 L2.697,15.2192 L1.364,15.2192 C0.809,15.2192 0.581,14.5312 0.949,14.2092 L7.219,8.1192 C7.455,7.8922 7.848,7.9692 7.976,8.2732 L8.79,9.7582 C8.965,10.0772 9.419,10.0902 9.611,9.7822 L10.641,8.1352 C10.762,7.8982 11.081,7.8452 11.267,8.0352 L17.368,14.2092 C17.736,14.5772 17.459,15.2192 16.953,15.2192" id="Fill-23"></path>
                    <path d="M8.3671,7.4975 C8.2021,7.3605 8.1351,7.1395 8.1961,6.9335 C8.4281,6.1595 8.7751,5.2485 9.3051,4.2825 C10.1141,2.8115 11.0591,1.7355 11.8211,1.0065 C11.9151,0.9155 12.0621,0.9245 12.1511,1.0185 L14.1641,3.2075 C14.2571,3.3095 14.2401,3.4665 14.1311,3.5485 C13.8241,3.7755 13.5121,4.0365 13.2011,4.3325 C11.6381,5.8265 10.2791,6.7815 9.6921,8.1525 C9.6201,8.3225 9.4001,8.3705 9.2561,8.2575 C8.5991,7.7405 8.6791,7.7575 8.3671,7.4975" id="Fill-25"></path>
                </g>
            </g>
        </g>
    </g>
</svg>